<?xml version="1.0" encoding="UTF-8" standalone="no"?>
<!-- Created with Inkscape (http://www.inkscape.org/) -->

<svg
   xmlns:dc="http://purl.org/dc/elements/1.1/"
   xmlns:cc="http://creativecommons.org/ns#"
   xmlns:rdf="http://www.w3.org/1999/02/22-rdf-syntax-ns#"
   xmlns:svg="http://www.w3.org/2000/svg"
   xmlns="http://www.w3.org/2000/svg"
   xmlns:sodipodi="http://sodipodi.sourceforge.net/DTD/sodipodi-0.dtd"
   xmlns:inkscape="http://www.inkscape.org/namespaces/inkscape"
   width="109.9838"
   height="117.5625"
   id="svg2"
   sodipodi:version="0.32"
   inkscape:version="0.48.4 r9939"
   sodipodi:docname="isocity-housing.svg"
   inkscape:output_extension="org.inkscape.output.svg.inkscape"
   version="1.0"
   inkscape:export-filename="C:\Documents and Settings\Administrator\Desktop\isocity.png"
   inkscape:export-xdpi="360.05301"
   inkscape:export-ydpi="360.05301">
  <defs
     id="defs4" />
  <sodipodi:namedview
     id="base"
     pagecolor="#ffffff"
     bordercolor="#666666"
     borderopacity="1.0"
     inkscape:pageopacity="0.0"
     inkscape:pageshadow="2"
     inkscape:zoom="4"
     inkscape:cx="106.53943"
     inkscape:cy="59.202398"
     inkscape:document-units="px"
     inkscape:current-layer="layer1"
     showgrid="true"
     gridtolerance="5"
     guidetolerance="5"
     inkscape:window-width="1280"
     inkscape:window-height="977"
     inkscape:window-x="-4"
     inkscape:window-y="-4"
     showguides="true"
     inkscape:guide-bbox="true"
     inkscape:window-maximized="1"
     fit-margin-top="0"
     fit-margin-left="0"
     fit-margin-right="0"
     fit-margin-bottom="0"
     inkscape:snap-grids="true"
     inkscape:snap-bbox="true">
    <inkscape:grid
       type="axonomgrid"
       id="grid2478"
       units="px"
       visible="true"
       enabled="true"
       gridanglex="26.57"
       gridanglez="26.57"
       spacingy="1px"
       empspacing="5"
       snapvisiblegridlinesonly="true"
       color="#ff0101"
       opacity="0.25098039"
       empcolor="#ff0101"
       empopacity="0.50196078"
       originx="4.998918px"
       originy="-79.937504px" />
  </sodipodi:namedview>
  <metadata
     id="metadata7">
    <rdf:RDF>
      <cc:Work
         rdf:about="">
        <dc:format>image/svg+xml</dc:format>
        <dc:type
           rdf:resource="http://purl.org/dc/dcmitype/StillImage" />
        <dc:title />
      </cc:Work>
    </rdf:RDF>
  </metadata>
  <g
     inkscape:label="layer0"
     inkscape:groupmode="layer"
     id="layer1"
     transform="translate(-115.69982,-244.25332)">
    <g
       id="g6973"
       transform="matrix(-0.15347345,0,0,0.13300135,110.69263,225.34024)" />
    <g
       id="g5948">
      <path
         style="fill:#cab594;fill-opacity:1;stroke:none"
         d="m 130.69658,306.75332 14.99676,-7.5 14.99676,7.5 -14.99676,7.5 z"
         id="path5923"
         inkscape:connector-curvature="0"
         sodipodi:nodetypes="ccccc" />
      <path
         style="fill:#9e845b;fill-opacity:1;stroke:none"
         d="m 130.69658,321.75332 14.99676,7.5 0,-15 -14.99676,-7.5 z"
         id="path5931"
         sodipodi:nodetypes="ccccc"
         inkscape:connector-curvature="0" />
      <path
         style="fill:#19aeff;stroke:none"
         d="m 132.69615,316.75332 3.99914,2 0,5 -3.99914,-2 z"
         id="path5953"
         inkscape:connector-curvature="0"
         sodipodi:nodetypes="ccccc" />
      <path
         id="path5947"
         d="m 132.69615,309.75332 3.99914,2 0,5 -3.99914,-2 z"
         style="fill:#19aeff;stroke:none"
         inkscape:connector-curvature="0"
         sodipodi:nodetypes="ccccc" />
      <path
         sodipodi:nodetypes="ccccc"
         id="path5925"
         d="m 138.69485,310.75332 6.99849,-3.5 0,7 -6.99849,3.5 z"
         style="fill:#81673d;fill-opacity:1;stroke:none"
         inkscape:connector-curvature="0" />
      <path
         sodipodi:nodetypes="ccccc"
         id="path5933"
         d="m 160.6901,321.75332 -14.99676,7.5 0,-15 14.99676,-7.5 z"
         style="fill:#81673d;fill-opacity:1;stroke:none"
         inkscape:connector-curvature="0" />
      <path
         style="fill:#9e845b;fill-opacity:1;stroke:none"
         d="m 152.69183,310.75332 -6.99849,-3.5 0,7 6.99849,3.5 z"
         id="path5929"
         sodipodi:nodetypes="ccccc"
         inkscape:connector-curvature="0" />
      <path
         id="path5927"
         d="m 138.69485,317.75332 6.99849,3.5 6.99849,-3.5 -6.99849,-3.5 z"
         style="fill:#cab594;fill-opacity:1;stroke:none"
         inkscape:connector-curvature="0"
         sodipodi:nodetypes="ccccc" />
      <path
         id="path5961"
         d="m 158.69054,309.75332 -3.93686,2 0,5 3.93686,-2 z"
         style="fill:#0084c8;stroke:none"
         inkscape:connector-curvature="0"
         sodipodi:nodetypes="ccccc" />
      <path
         inkscape:connector-curvature="0"
         sodipodi:nodetypes="ccccc"
         style="fill:#3465a4;fill-opacity:1;stroke:none"
         d="m 139.69464,320.25332 0,6 3.99913,2 0,-6 z"
         id="path40650-7" />
      <path
         id="path5042"
         d="m 140.69442,311.75332 0,5 2.99935,-1.5 0,-5 z"
         style="fill:#3465a4;fill-opacity:1;stroke:none"
         sodipodi:nodetypes="ccccc"
         inkscape:connector-curvature="0" />
      <path
         sodipodi:nodetypes="ccccc"
         inkscape:connector-curvature="0"
         style="fill:#cab594;fill-opacity:1;stroke:none"
         d="m 139.69464,326.25332 3.99913,2 0,-1 -2.99935,-1.5 z"
         id="path5845" />
      <path
         inkscape:connector-curvature="0"
         style="fill:#81673d;fill-opacity:1;stroke:none"
         d="m 140.69442,325.75332 -0.99978,0.5 0,-6 0.99978,0.5 z"
         id="path5847"
         sodipodi:nodetypes="ccccc" />
      <path
         inkscape:connector-curvature="0"
         sodipodi:nodetypes="ccccc"
         id="path5849"
         d="m 142.69399,314.75332 0.99978,0.5 0,-5 -0.99978,0.5 z"
         style="fill:#9e845b;fill-opacity:1;stroke:none" />
      <path
         sodipodi:nodetypes="ccccc"
         inkscape:connector-curvature="0"
         style="fill:#cab594;fill-opacity:1;stroke:none"
         d="m 140.69442,315.75332 0,1 2.99935,-1.5 -0.99978,-0.5 z"
         id="path5851" />
      <path
         sodipodi:nodetypes="ccccc"
         inkscape:connector-curvature="0"
         style="fill:#0084c8;stroke:none"
         d="m 158.69054,316.75332 -3.99914,2 0,5 3.99914,-2 z"
         id="path4973" />
      <path
         id="path4975"
         d="m 151.69205,320.25332 -3.99914,2 0,5 3.99914,-2 z"
         style="fill:#0084c8;stroke:none"
         inkscape:connector-curvature="0"
         sodipodi:nodetypes="ccccc" />
    </g>
    <g
       id="g5980">
      <path
         sodipodi:nodetypes="ccccc"
         inkscape:connector-curvature="0"
         id="path4981"
         d="m 165.69658,309.31582 14.99676,-7.5 14.99676,7.5 -14.99676,7.5 z"
         style="fill:#cab594;fill-opacity:1;stroke:none" />
      <path
         inkscape:connector-curvature="0"
         sodipodi:nodetypes="ccccc"
         id="path4983"
         d="m 165.69658,324.31582 14.99676,7.5 0,-15 -14.99676,-7.5 z"
         style="fill:#9e845b;fill-opacity:1;stroke:none" />
      <path
         sodipodi:nodetypes="ccccc"
         inkscape:connector-curvature="0"
         id="path4985"
         d="m 167.68859,319.25332 4.0067,2.0625 0,5 -4.0067,-2.0625 z"
         style="fill:#19aeff;stroke:none" />
      <path
         sodipodi:nodetypes="ccccc"
         inkscape:connector-curvature="0"
         style="fill:#19aeff;stroke:none"
         d="m 167.68859,312.25332 4.0067,2.0625 0,5 -4.0067,-2.0625 z"
         id="path4988" />
      <path
         inkscape:connector-curvature="0"
         style="fill:#81673d;fill-opacity:1;stroke:none"
         d="m 195.6901,324.31582 -14.99676,7.5 0,-15 14.99676,-7.5 z"
         id="path4992"
         sodipodi:nodetypes="ccccc" />
      <path
         sodipodi:nodetypes="ccccc"
         inkscape:connector-curvature="0"
         style="fill:#0084c8;stroke:none"
         d="m 193.68298,312.25332 -3.9293,2.0625 0,5 3.9293,-2.0625 z"
         id="path4998" />
      <path
         id="path5000"
         d="m 174.69464,322.81582 0,6 3.99913,2 0,-6 z"
         style="fill:#3465a4;fill-opacity:1;stroke:none"
         sodipodi:nodetypes="ccccc"
         inkscape:connector-curvature="0" />
      <path
         id="path5004"
         d="m 174.69464,328.81582 3.99913,2 0,-1 -2.99935,-1.5 z"
         style="fill:#cab594;fill-opacity:1;stroke:none"
         inkscape:connector-curvature="0"
         sodipodi:nodetypes="ccccc" />
      <path
         sodipodi:nodetypes="ccccc"
         id="path5006"
         d="m 175.69442,328.31582 -0.99978,0.5 0,-6 0.99978,0.5 z"
         style="fill:#81673d;fill-opacity:1;stroke:none"
         inkscape:connector-curvature="0" />
      <path
         id="path5012"
         d="m 193.68298,319.25332 -3.99158,2.0625 0,5 3.99158,-2.0625 z"
         style="fill:#0084c8;stroke:none"
         inkscape:connector-curvature="0"
         sodipodi:nodetypes="ccccc" />
      <path
         sodipodi:nodetypes="ccccc"
         inkscape:connector-curvature="0"
         style="fill:#0084c8;stroke:none"
         d="m 186.68449,322.75332 -3.99914,2 0,5 3.99914,-2 z"
         id="path5014" />
      <path
         id="path5016"
         d="m 174.68708,315.75332 3.99914,2 0,5 -3.99914,-2 z"
         style="fill:#19aeff;stroke:none"
         inkscape:connector-curvature="0"
         sodipodi:nodetypes="ccccc" />
      <path
         id="path5018"
         d="m 186.68449,315.75332 -3.99914,2 0,5 3.99914,-2 z"
         style="fill:#0084c8;stroke:none"
         inkscape:connector-curvature="0"
         sodipodi:nodetypes="ccccc" />
    </g>
    <g
       id="g5909"
       transform="translate(14.996766,-7.499996)">
      <path
         sodipodi:nodetypes="ccccc"
         inkscape:connector-curvature="0"
         id="path5028"
         d="m 130.69658,341.75332 14.99676,-7.5 14.99676,7.5 -14.99676,7.5 z"
         style="fill:#cab594;fill-opacity:1;stroke:none" />
      <path
         inkscape:connector-curvature="0"
         sodipodi:nodetypes="ccccc"
         id="path5031"
         d="m 130.69658,356.75332 14.99676,7.5 0,-15 -14.99676,-7.5 z"
         style="fill:#9e845b;fill-opacity:1;stroke:none" />
      <path
         sodipodi:nodetypes="ccccc"
         inkscape:connector-curvature="0"
         id="path5033"
         d="m 132.69615,351.75332 3.99914,2 0,5 -3.99914,-2 z"
         style="fill:#19aeff;stroke:none" />
      <path
         sodipodi:nodetypes="ccccc"
         inkscape:connector-curvature="0"
         style="fill:#19aeff;stroke:none"
         d="m 132.69615,344.75332 3.99914,2 0,5 -3.99914,-2 z"
         id="path5038" />
      <path
         inkscape:connector-curvature="0"
         style="fill:#81673d;fill-opacity:1;stroke:none"
         d="m 138.69485,345.75332 6.99849,-3.5 0,7 -6.99849,3.5 z"
         id="path5040"
         sodipodi:nodetypes="ccccc" />
      <path
         inkscape:connector-curvature="0"
         style="fill:#81673d;fill-opacity:1;stroke:none"
         d="m 160.6901,356.75332 -14.99676,7.5 0,-15 14.99676,-7.5 z"
         id="path5044"
         sodipodi:nodetypes="ccccc" />
      <path
         inkscape:connector-curvature="0"
         sodipodi:nodetypes="ccccc"
         id="path5046"
         d="m 152.69183,345.75332 -6.99849,-3.5 0,7 6.99849,3.5 z"
         style="fill:#9e845b;fill-opacity:1;stroke:none" />
      <path
         sodipodi:nodetypes="ccccc"
         inkscape:connector-curvature="0"
         style="fill:#cab594;fill-opacity:1;stroke:none"
         d="m 138.69485,352.75332 6.99849,3.5 6.99849,-3.5 -6.99849,-3.5 z"
         id="path5048" />
      <path
         sodipodi:nodetypes="ccccc"
         inkscape:connector-curvature="0"
         style="fill:#0084c8;stroke:none"
         d="m 158.69054,344.75332 -3.93686,2 0,5 3.93686,-2 z"
         id="path5050" />
      <path
         id="path5052"
         d="m 139.69464,355.25332 0,6 3.99913,2 0,-6 z"
         style="fill:#3465a4;fill-opacity:1;stroke:none"
         sodipodi:nodetypes="ccccc"
         inkscape:connector-curvature="0" />
      <path
         inkscape:connector-curvature="0"
         sodipodi:nodetypes="ccccc"
         style="fill:#3465a4;fill-opacity:1;stroke:none"
         d="m 140.69442,346.75332 0,5 2.99935,-1.5 0,-5 z"
         id="path5054" />
      <path
         id="path5056"
         d="m 139.69464,361.25332 3.99913,2 0,-1 -2.99935,-1.5 z"
         style="fill:#cab594;fill-opacity:1;stroke:none"
         inkscape:connector-curvature="0"
         sodipodi:nodetypes="ccccc" />
      <path
         sodipodi:nodetypes="ccccc"
         id="path5058"
         d="m 140.69442,360.75332 -0.99978,0.5 0,-6 0.99978,0.5 z"
         style="fill:#81673d;fill-opacity:1;stroke:none"
         inkscape:connector-curvature="0" />
      <path
         style="fill:#9e845b;fill-opacity:1;stroke:none"
         d="m 142.69399,349.75332 0.99978,0.5 0,-5 -0.99978,0.5 z"
         id="path5060"
         sodipodi:nodetypes="ccccc"
         inkscape:connector-curvature="0" />
      <path
         id="path5062"
         d="m 140.69442,350.75332 0,1 2.99935,-1.5 -0.99978,-0.5 z"
         style="fill:#cab594;fill-opacity:1;stroke:none"
         inkscape:connector-curvature="0"
         sodipodi:nodetypes="ccccc" />
      <path
         sodipodi:nodetypes="ccccc"
         inkscape:connector-curvature="0"
         style="fill:#0084c8;stroke:none"
         d="m 151.69205,355.25332 -3.99914,2 0,5 3.99914,-2 z"
         id="path5066" />
      <path
         id="path5068"
         d="m 153.69161,354.25332 4.99892,2.5 6.99849,-3.5 -4.99892,-2.4375 z"
         style="fill:#cab594;fill-opacity:1;stroke:none"
         inkscape:connector-curvature="0"
         sodipodi:nodetypes="ccccc" />
      <path
         style="fill:#9e845b;fill-opacity:1;stroke:none"
         d="m 158.69053,356.75332 -4.99892,-2.5 0,6 4.99892,2.5 z"
         id="path5072"
         sodipodi:nodetypes="ccccc"
         inkscape:connector-curvature="0" />
      <path
         sodipodi:nodetypes="ccccc"
         id="path5074"
         d="m 158.69053,356.75332 6.99849,-3.5 0,6 -6.99849,3.5 z"
         style="fill:#81673d;fill-opacity:1;stroke:none"
         inkscape:connector-curvature="0" />
      <path
         inkscape:connector-curvature="0"
         sodipodi:nodetypes="ccccc"
         style="fill:#3465a4;fill-opacity:1;stroke:none"
         d="m 154.6914,355.75332 0,5 2.99935,1.5 0,-5 z"
         id="path5078" />
    </g>
    <g
       id="g6034"
       transform="translate(-54.988128,-32.499996)">
      <path
         sodipodi:nodetypes="ccccc"
         id="path1932"
         d="m 185.68471,369.25332 -14.99676,-7.5 0,10 14.99676,7.5 z"
         style="fill:#d3d7cf;fill-opacity:1;fill-rule:evenodd;stroke:none"
         inkscape:connector-curvature="0" />
      <path
         sodipodi:nodetypes="ccccc"
         id="path1934"
         d="m 185.68471,379.25332 9.99784,-5 0,-10 -9.99784,5 z"
         style="fill:#888a85;fill-opacity:1;fill-rule:evenodd;stroke:none"
         inkscape:connector-curvature="0" />
      <path
         sodipodi:nodetypes="cccc"
         id="path1936"
         d="m 195.68255,364.25332 -4.99892,-2.5 -4.99892,7.5 z"
         style="fill:#72321a;fill-opacity:1;fill-rule:evenodd;stroke:none"
         inkscape:connector-curvature="0" />
      <path
         sodipodi:nodetypes="ccccc"
         id="path1942"
         d="m 190.68363,361.75332 -4.99892,7.5 -14.99676,-7.5 4.99892,-7.5 z"
         style="fill:#fc7847;fill-opacity:1;fill-rule:evenodd;stroke:none"
         inkscape:connector-curvature="0" />
      <path
         sodipodi:nodetypes="ccccc"
         id="path3720"
         d="m 187.68427,369.25332 5.99871,-3 0,5 -5.99871,3 z"
         style="fill:#0084c8;fill-opacity:1;fill-rule:evenodd;stroke:none"
         inkscape:connector-curvature="0" />
      <path
         sodipodi:nodetypes="ccccc"
         id="path4611-4"
         d="m 181.68557,373.25332 0,-5 2.99935,1.5 0,5 z"
         style="fill:#19aeff;fill-opacity:1;fill-rule:evenodd;stroke:none"
         inkscape:connector-curvature="0" />
      <path
         sodipodi:nodetypes="ccccc"
         id="path5498-8"
         d="m 174.68708,364.75332 0,5 -2.99935,-1.5 0,-5 z"
         style="fill:#19aeff;fill-opacity:1;fill-rule:evenodd;stroke:none"
         inkscape:connector-curvature="0" />
      <path
         inkscape:connector-curvature="0"
         sodipodi:nodetypes="ccccc"
         style="fill:#3465a4;fill-opacity:1;stroke:none"
         d="m 176.68665,369.75332 0,5 2.99935,1.5 0,-5 z"
         id="path5880" />
      <path
         sodipodi:nodetypes="ccccc"
         inkscape:connector-curvature="0"
         style="fill:#eeeeec;fill-opacity:1;stroke:none"
         d="m 176.68665,374.75332 2.99934,1.5 0,-1 -1.99956,-1 z"
         id="path5882" />
      <path
         inkscape:connector-curvature="0"
         style="fill:#888a85;fill-opacity:1;stroke:none"
         d="m 177.68643,374.25332 -0.99978,0.5 0,-5 0.99978,0.5 z"
         id="path5884"
         sodipodi:nodetypes="ccccc" />
    </g>
    <g
       id="g6010"
       transform="translate(-9.9978432,5)">
      <path
         style="fill:#cab594;fill-opacity:1;stroke:none"
         d="m 195.68255,329.25332 14.99676,-7.5 24.9946,12.5 -14.99676,7.5 z"
         id="path5082"
         inkscape:connector-curvature="0"
         sodipodi:nodetypes="ccccc" />
      <path
         style="fill:#9e845b;fill-opacity:1;stroke:none"
         d="m 195.68255,344.25332 24.9946,12.5 0,-15 -24.9946,-12.5 z"
         id="path5084"
         sodipodi:nodetypes="ccccc"
         inkscape:connector-curvature="0" />
      <path
         style="fill:#19aeff;stroke:none"
         d="m 198.67434,339.75332 4.0067,2.0625 0,5 -4.0067,-2.0625 z"
         id="path5086"
         inkscape:connector-curvature="0"
         sodipodi:nodetypes="ccccc" />
      <path
         id="path5088"
         d="m 198.67434,332.69082 4.0067,2.0625 0,5 -4.0067,-2.0625 z"
         style="fill:#19aeff;stroke:none"
         inkscape:connector-curvature="0"
         sodipodi:nodetypes="ccccc" />
      <path
         sodipodi:nodetypes="ccccc"
         id="path5090"
         d="m 235.68147,349.31582 -14.99676,7.5 0,-15 14.99676,-7.5 z"
         style="fill:#81673d;fill-opacity:1;stroke:none"
         inkscape:connector-curvature="0" />
      <path
         id="path5092"
         d="m 233.67435,337.25332 -3.9293,2.0625 0,5 3.9293,-2.0625 z"
         style="fill:#0084c8;stroke:none"
         inkscape:connector-curvature="0"
         sodipodi:nodetypes="ccccc" />
      <path
         inkscape:connector-curvature="0"
         sodipodi:nodetypes="ccccc"
         style="fill:#3465a4;fill-opacity:1;stroke:none"
         d="m 205.68039,343.25332 0,6 4.99892,2.5 0,-6 z"
         id="path5094" />
      <path
         sodipodi:nodetypes="ccccc"
         inkscape:connector-curvature="0"
         style="fill:#cab594;fill-opacity:1;stroke:none"
         d="m 205.68039,349.25332 4.99892,2.5 0,-1 -3.99914,-2 z"
         id="path5096" />
      <path
         inkscape:connector-curvature="0"
         style="fill:#81673d;fill-opacity:1;stroke:none"
         d="m 206.68017,348.75332 -0.99978,0.5 0,-6 0.99978,0.5 z"
         id="path5098"
         sodipodi:nodetypes="ccccc" />
      <path
         sodipodi:nodetypes="ccccc"
         inkscape:connector-curvature="0"
         style="fill:#0084c8;stroke:none"
         d="m 233.67435,344.25332 -3.99158,2.0625 0,5 3.99158,-2.0625 z"
         id="path5100" />
      <path
         id="path5102"
         d="m 226.67586,347.75332 -3.99914,2 0,5 3.99914,-2 z"
         style="fill:#0084c8;stroke:none"
         inkscape:connector-curvature="0"
         sodipodi:nodetypes="ccccc" />
      <path
         sodipodi:nodetypes="ccccc"
         inkscape:connector-curvature="0"
         style="fill:#19aeff;stroke:none"
         d="m 205.68039,336.25332 4.99892,2.5 0,5 -4.99892,-2.5 z"
         id="path5104" />
      <path
         sodipodi:nodetypes="ccccc"
         inkscape:connector-curvature="0"
         style="fill:#0084c8;stroke:none"
         d="m 226.67586,340.75332 -3.99914,2 0,5 3.99914,-2 z"
         id="path5106" />
      <path
         id="path5108"
         d="m 213.67866,340.25332 3.99914,2 0,5 -3.99914,-2 z"
         style="fill:#19aeff;stroke:none"
         inkscape:connector-curvature="0"
         sodipodi:nodetypes="ccccc" />
      <path
         sodipodi:nodetypes="ccccc"
         inkscape:connector-curvature="0"
         style="fill:#19aeff;stroke:none"
         d="m 213.67866,347.25332 3.99914,2 0,5 -3.99914,-2 z"
         id="path5110" />
    </g>
    <g
       id="g5021"
       transform="translate(2.4956985e-7,-55)">
      <path
         sodipodi:nodetypes="ccccc"
         inkscape:connector-curvature="0"
         id="path5029"
         d="m 130.69658,306.75332 14.99676,-7.5 14.99676,7.5 -14.99676,7.5 z"
         style="fill:#eeeeec;fill-opacity:1;stroke:none" />
      <path
         inkscape:connector-curvature="0"
         sodipodi:nodetypes="ccccc"
         id="path5064"
         d="m 130.69658,321.75332 14.99676,7.5 0,-15 -14.99676,-7.5 z"
         style="fill:#d3d7cf;fill-opacity:1;stroke:none" />
      <path
         sodipodi:nodetypes="ccccc"
         inkscape:connector-curvature="0"
         id="path5070"
         d="m 132.69615,316.75332 3.99914,2 0,5 -3.99914,-2 z"
         style="fill:#19aeff;stroke:none" />
      <path
         sodipodi:nodetypes="ccccc"
         inkscape:connector-curvature="0"
         style="fill:#19aeff;stroke:none"
         d="m 132.69615,309.75332 3.99914,2 0,5 -3.99914,-2 z"
         id="path5076" />
      <path
         inkscape:connector-curvature="0"
         style="fill:#888a85;fill-opacity:1;stroke:none"
         d="m 138.69485,310.75332 6.99849,-3.5 0,7 -6.99849,3.5 z"
         id="path5079"
         sodipodi:nodetypes="ccccc" />
      <path
         inkscape:connector-curvature="0"
         style="fill:#888a85;fill-opacity:1;stroke:none"
         d="m 160.6901,321.75332 -14.99676,7.5 0,-15 14.99676,-7.5 z"
         id="path5081"
         sodipodi:nodetypes="ccccc" />
      <path
         inkscape:connector-curvature="0"
         sodipodi:nodetypes="ccccc"
         id="path5083"
         d="m 152.69183,310.75332 -6.99849,-3.5 0,7 6.99849,3.5 z"
         style="fill:#d3d7cf;fill-opacity:1;stroke:none" />
      <path
         sodipodi:nodetypes="ccccc"
         inkscape:connector-curvature="0"
         style="fill:#eeeeec;fill-opacity:1;stroke:none"
         d="m 138.69485,317.75332 6.99849,3.5 6.99849,-3.5 -6.99849,-3.5 z"
         id="path5085" />
      <path
         sodipodi:nodetypes="ccccc"
         inkscape:connector-curvature="0"
         style="fill:#0084c8;stroke:none"
         d="m 158.69054,309.75332 -3.93686,2 0,5 3.93686,-2 z"
         id="path5087" />
      <path
         id="path5089"
         d="m 139.69464,320.25332 0,6 3.99913,2 0,-6 z"
         style="fill:#3465a4;fill-opacity:1;stroke:none"
         sodipodi:nodetypes="ccccc"
         inkscape:connector-curvature="0" />
      <path
         inkscape:connector-curvature="0"
         sodipodi:nodetypes="ccccc"
         style="fill:#3465a4;fill-opacity:1;stroke:none"
         d="m 140.69442,311.75332 0,5 2.99935,-1.5 0,-5 z"
         id="path5091" />
      <path
         id="path5093"
         d="m 139.69464,326.25332 3.99913,2 0,-1 -2.99935,-1.5 z"
         style="fill:#eeeeec;fill-opacity:1;stroke:none"
         inkscape:connector-curvature="0"
         sodipodi:nodetypes="ccccc" />
      <path
         sodipodi:nodetypes="ccccc"
         id="path5095"
         d="m 140.69442,325.75332 -0.99978,0.5 0,-6 0.99978,0.5 z"
         style="fill:#888a85;fill-opacity:1;stroke:none"
         inkscape:connector-curvature="0" />
      <path
         style="fill:#d3d7cf;fill-opacity:1;stroke:none"
         d="m 142.69399,314.75332 0.99978,0.5 0,-5 -0.99978,0.5 z"
         id="path5097"
         sodipodi:nodetypes="ccccc"
         inkscape:connector-curvature="0" />
      <path
         id="path5099"
         d="m 140.69442,315.75332 0,1 2.99935,-1.5 -0.99978,-0.5 z"
         style="fill:#eeeeec;fill-opacity:1;stroke:none"
         inkscape:connector-curvature="0"
         sodipodi:nodetypes="ccccc" />
      <path
         id="path5101"
         d="m 158.69054,316.75332 -3.99914,2 0,5 3.99914,-2 z"
         style="fill:#0084c8;stroke:none"
         inkscape:connector-curvature="0"
         sodipodi:nodetypes="ccccc" />
      <path
         sodipodi:nodetypes="ccccc"
         inkscape:connector-curvature="0"
         style="fill:#0084c8;stroke:none"
         d="m 151.69205,320.25332 -3.99914,2 0,5 3.99914,-2 z"
         id="path5103" />
    </g>
    <g
       id="g5105"
       transform="translate(2.4956985e-7,-55)">
      <path
         style="fill:#eeeeec;fill-opacity:1;stroke:none"
         d="m 165.69658,309.31582 14.99676,-7.5 14.99676,7.5 -14.99676,7.5 z"
         id="path5107"
         inkscape:connector-curvature="0"
         sodipodi:nodetypes="ccccc" />
      <path
         style="fill:#d3d7cf;fill-opacity:1;stroke:none"
         d="m 165.69658,324.31582 14.99676,7.5 0,-15 -14.99676,-7.5 z"
         id="path5109"
         sodipodi:nodetypes="ccccc"
         inkscape:connector-curvature="0" />
      <path
         style="fill:#19aeff;stroke:none"
         d="m 167.68859,319.25332 4.0067,2.0625 0,5 -4.0067,-2.0625 z"
         id="path5111"
         inkscape:connector-curvature="0"
         sodipodi:nodetypes="ccccc" />
      <path
         id="path5113"
         d="m 167.68859,312.25332 4.0067,2.0625 0,5 -4.0067,-2.0625 z"
         style="fill:#19aeff;stroke:none"
         inkscape:connector-curvature="0"
         sodipodi:nodetypes="ccccc" />
      <path
         sodipodi:nodetypes="ccccc"
         id="path5115"
         d="m 195.6901,324.31582 -14.99676,7.5 0,-15 14.99676,-7.5 z"
         style="fill:#888a85;fill-opacity:1;stroke:none"
         inkscape:connector-curvature="0" />
      <path
         id="path5117"
         d="m 193.68298,312.25332 -3.9293,2.0625 0,5 3.9293,-2.0625 z"
         style="fill:#0084c8;stroke:none"
         inkscape:connector-curvature="0"
         sodipodi:nodetypes="ccccc" />
      <path
         inkscape:connector-curvature="0"
         sodipodi:nodetypes="ccccc"
         style="fill:#3465a4;fill-opacity:1;stroke:none"
         d="m 174.69464,322.81582 0,6 3.99913,2 0,-6 z"
         id="path5119" />
      <path
         sodipodi:nodetypes="ccccc"
         inkscape:connector-curvature="0"
         style="fill:#eeeeec;fill-opacity:1;stroke:none"
         d="m 174.69464,328.81582 3.99913,2 0,-1 -2.99935,-1.5 z"
         id="path5121" />
      <path
         inkscape:connector-curvature="0"
         style="fill:#888a85;fill-opacity:1;stroke:none"
         d="m 175.69442,328.31582 -0.99978,0.5 0,-6 0.99978,0.5 z"
         id="path5123"
         sodipodi:nodetypes="ccccc" />
      <path
         sodipodi:nodetypes="ccccc"
         inkscape:connector-curvature="0"
         style="fill:#0084c8;stroke:none"
         d="m 193.68298,319.25332 -3.99158,2.0625 0,5 3.99158,-2.0625 z"
         id="path5125" />
      <path
         id="path5127"
         d="m 186.68449,322.75332 -3.99914,2 0,5 3.99914,-2 z"
         style="fill:#0084c8;stroke:none"
         inkscape:connector-curvature="0"
         sodipodi:nodetypes="ccccc" />
      <path
         sodipodi:nodetypes="ccccc"
         inkscape:connector-curvature="0"
         style="fill:#19aeff;stroke:none"
         d="m 174.68708,315.75332 3.99914,2 0,5 -3.99914,-2 z"
         id="path5130" />
      <path
         sodipodi:nodetypes="ccccc"
         inkscape:connector-curvature="0"
         style="fill:#0084c8;stroke:none"
         d="m 186.68449,315.75332 -3.99914,2 0,5 3.99914,-2 z"
         id="path5132" />
    </g>
    <g
       transform="translate(14.996766,-62.499996)"
       id="g5134">
      <path
         style="fill:#eeeeec;fill-opacity:1;stroke:none"
         d="m 130.69658,341.75332 14.99676,-7.5 14.99676,7.5 -14.99676,7.5 z"
         id="path5136"
         inkscape:connector-curvature="0"
         sodipodi:nodetypes="ccccc" />
      <path
         style="fill:#d3d7cf;fill-opacity:1;stroke:none"
         d="m 130.69658,356.75332 14.99676,7.5 0,-15 -14.99676,-7.5 z"
         id="path5138"
         sodipodi:nodetypes="ccccc"
         inkscape:connector-curvature="0" />
      <path
         style="fill:#19aeff;stroke:none"
         d="m 132.69615,351.75332 3.99914,2 0,5 -3.99914,-2 z"
         id="path5140"
         inkscape:connector-curvature="0"
         sodipodi:nodetypes="ccccc" />
      <path
         id="path5142"
         d="m 132.69615,344.75332 3.99914,2 0,5 -3.99914,-2 z"
         style="fill:#19aeff;stroke:none"
         inkscape:connector-curvature="0"
         sodipodi:nodetypes="ccccc" />
      <path
         sodipodi:nodetypes="ccccc"
         id="path5144"
         d="m 138.69485,345.75332 6.99849,-3.5 0,7 -6.99849,3.5 z"
         style="fill:#888a85;fill-opacity:1;stroke:none"
         inkscape:connector-curvature="0" />
      <path
         sodipodi:nodetypes="ccccc"
         id="path5146"
         d="m 160.6901,356.75332 -14.99676,7.5 0,-15 14.99676,-7.5 z"
         style="fill:#888a85;fill-opacity:1;stroke:none"
         inkscape:connector-curvature="0" />
      <path
         style="fill:#d3d7cf;fill-opacity:1;stroke:none"
         d="m 152.69183,345.75332 -6.99849,-3.5 0,7 6.99849,3.5 z"
         id="path5148"
         sodipodi:nodetypes="ccccc"
         inkscape:connector-curvature="0" />
      <path
         id="path5150"
         d="m 138.69485,352.75332 6.99849,3.5 6.99849,-3.5 -6.99849,-3.5 z"
         style="fill:#eeeeec;fill-opacity:1;stroke:none"
         inkscape:connector-curvature="0"
         sodipodi:nodetypes="ccccc" />
      <path
         id="path5152"
         d="m 158.69054,344.75332 -3.93686,2 0,5 3.93686,-2 z"
         style="fill:#0084c8;stroke:none"
         inkscape:connector-curvature="0"
         sodipodi:nodetypes="ccccc" />
      <path
         inkscape:connector-curvature="0"
         sodipodi:nodetypes="ccccc"
         style="fill:#3465a4;fill-opacity:1;stroke:none"
         d="m 139.69464,355.25332 0,6 3.99913,2 0,-6 z"
         id="path5154" />
      <path
         id="path5156"
         d="m 140.69442,346.75332 0,5 2.99935,-1.5 0,-5 z"
         style="fill:#3465a4;fill-opacity:1;stroke:none"
         sodipodi:nodetypes="ccccc"
         inkscape:connector-curvature="0" />
      <path
         sodipodi:nodetypes="ccccc"
         inkscape:connector-curvature="0"
         style="fill:#eeeeec;fill-opacity:1;stroke:none"
         d="m 139.69464,361.25332 3.99913,2 0,-1 -2.99935,-1.5 z"
         id="path5158" />
      <path
         inkscape:connector-curvature="0"
         style="fill:#81673d;fill-opacity:1;stroke:none"
         d="m 140.69442,360.75332 -0.99978,0.5 0,-6 0.99978,0.5 z"
         id="path5160"
         sodipodi:nodetypes="ccccc" />
      <path
         inkscape:connector-curvature="0"
         sodipodi:nodetypes="ccccc"
         id="path5162"
         d="m 142.69399,349.75332 0.99978,0.5 0,-5 -0.99978,0.5 z"
         style="fill:#d3d7cf;fill-opacity:1;stroke:none" />
      <path
         sodipodi:nodetypes="ccccc"
         inkscape:connector-curvature="0"
         style="fill:#eeeeec;fill-opacity:1;stroke:none"
         d="m 140.69442,350.75332 0,1 2.99935,-1.5 -0.99978,-0.5 z"
         id="path5164" />
      <path
         id="path5166"
         d="m 151.69205,355.25332 -3.99914,2 0,5 3.99914,-2 z"
         style="fill:#0084c8;stroke:none"
         inkscape:connector-curvature="0"
         sodipodi:nodetypes="ccccc" />
      <path
         sodipodi:nodetypes="ccccc"
         inkscape:connector-curvature="0"
         style="fill:#eeeeec;fill-opacity:1;stroke:none"
         d="m 153.69161,354.25332 4.99892,2.5 6.99849,-3.5 -4.99892,-2.4375 z"
         id="path5168" />
      <path
         inkscape:connector-curvature="0"
         sodipodi:nodetypes="ccccc"
         id="path5170"
         d="m 158.69053,356.75332 -4.99892,-2.5 0,6 4.99892,2.5 z"
         style="fill:#d3d7cf;fill-opacity:1;stroke:none" />
      <path
         inkscape:connector-curvature="0"
         style="fill:#888a85;fill-opacity:1;stroke:none"
         d="m 158.69053,356.75332 6.99849,-3.5 0,6 -6.99849,3.5 z"
         id="path5172"
         sodipodi:nodetypes="ccccc" />
      <path
         id="path5174"
         d="m 154.6914,355.75332 0,5 2.99935,1.5 0,-5 z"
         style="fill:#3465a4;fill-opacity:1;stroke:none"
         sodipodi:nodetypes="ccccc"
         inkscape:connector-curvature="0" />
    </g>
    <g
       transform="translate(-9.9978428,-50)"
       id="g5176">
      <path
         sodipodi:nodetypes="ccccc"
         inkscape:connector-curvature="0"
         id="path5178"
         d="m 195.68255,329.25332 14.99676,-7.5 24.9946,12.5 -14.99676,7.5 z"
         style="fill:#eeeeec;fill-opacity:1;stroke:none" />
      <path
         inkscape:connector-curvature="0"
         sodipodi:nodetypes="ccccc"
         id="path5180"
         d="m 195.68255,344.25332 24.9946,12.5 0,-15 -24.9946,-12.5 z"
         style="fill:#d3d7cf;fill-opacity:1;stroke:none" />
      <path
         sodipodi:nodetypes="ccccc"
         inkscape:connector-curvature="0"
         id="path5182"
         d="m 198.67434,339.75332 4.0067,2.0625 0,5 -4.0067,-2.0625 z"
         style="fill:#19aeff;stroke:none" />
      <path
         sodipodi:nodetypes="ccccc"
         inkscape:connector-curvature="0"
         style="fill:#19aeff;stroke:none"
         d="m 198.67434,332.69082 4.0067,2.0625 0,5 -4.0067,-2.0625 z"
         id="path5184" />
      <path
         inkscape:connector-curvature="0"
         style="fill:#888a85;fill-opacity:1;stroke:none"
         d="m 235.68147,349.31582 -14.99676,7.5 0,-15 14.99676,-7.5 z"
         id="path5186"
         sodipodi:nodetypes="ccccc" />
      <path
         sodipodi:nodetypes="ccccc"
         inkscape:connector-curvature="0"
         style="fill:#0084c8;stroke:none"
         d="m 233.67435,337.25332 -3.9293,2.0625 0,5 3.9293,-2.0625 z"
         id="path5188" />
      <path
         id="path5190"
         d="m 205.68039,343.25332 0,6 4.99892,2.5 0,-6 z"
         style="fill:#3465a4;fill-opacity:1;stroke:none"
         sodipodi:nodetypes="ccccc"
         inkscape:connector-curvature="0" />
      <path
         id="path5192"
         d="m 205.68039,349.25332 4.99892,2.5 0,-1 -3.99914,-2 z"
         style="fill:#eeeeec;fill-opacity:1;stroke:none"
         inkscape:connector-curvature="0"
         sodipodi:nodetypes="ccccc" />
      <path
         sodipodi:nodetypes="ccccc"
         id="path5194"
         d="m 206.68017,348.75332 -0.99978,0.5 0,-6 0.99978,0.5 z"
         style="fill:#888a85;fill-opacity:1;stroke:none"
         inkscape:connector-curvature="0" />
      <path
         id="path5196"
         d="m 233.67435,344.25332 -3.99158,2.0625 0,5 3.99158,-2.0625 z"
         style="fill:#0084c8;stroke:none"
         inkscape:connector-curvature="0"
         sodipodi:nodetypes="ccccc" />
      <path
         sodipodi:nodetypes="ccccc"
         inkscape:connector-curvature="0"
         style="fill:#0084c8;stroke:none"
         d="m 226.67586,347.75332 -3.99914,2 0,5 3.99914,-2 z"
         id="path5198" />
      <path
         id="path5200"
         d="m 205.68039,336.25332 4.99892,2.5 0,5 -4.99892,-2.5 z"
         style="fill:#19aeff;stroke:none"
         inkscape:connector-curvature="0"
         sodipodi:nodetypes="ccccc" />
      <path
         id="path5202"
         d="m 226.67586,340.75332 -3.99914,2 0,5 3.99914,-2 z"
         style="fill:#0084c8;stroke:none"
         inkscape:connector-curvature="0"
         sodipodi:nodetypes="ccccc" />
      <path
         sodipodi:nodetypes="ccccc"
         inkscape:connector-curvature="0"
         style="fill:#19aeff;stroke:none"
         d="m 213.67866,340.25332 3.99914,2 0,5 -3.99914,-2 z"
         id="path5204" />
      <path
         id="path5206"
         d="m 213.67866,347.25332 3.99914,2 0,5 -3.99914,-2 z"
         style="fill:#19aeff;stroke:none"
         inkscape:connector-curvature="0"
         sodipodi:nodetypes="ccccc" />
    </g>
  </g>
</svg>
